<svg width="1024" height="1024" viewBox="0 0 1024 1024" fill="none" xmlns="http://www.w3.org/2000/svg">
<g clip-path="url(#clip0_2045_95)">
<path d="M1025 557.531C1024.34 558.721 1023.19 559.379 1023.09 560.171C1021.64 571.54 1020.9 583.029 1018.88 594.287C1015.8 611.401 1012.81 628.635 1008.03 645.313C1001.95 666.495 995.339 687.692 986.721 707.932C976.982 730.804 965.769 753.201 953.327 774.723C942.112 794.124 928.619 812.241 915.623 830.564C910.129 838.31 903.435 845.224 897.103 852.354C890.084 860.259 883.267 868.412 875.623 875.679C863.922 886.802 851.926 897.672 839.43 907.884C826.161 918.727 812.493 929.155 798.407 938.908C775.168 954.997 750.229 968.218 724.582 980.042C693.659 994.299 661.477 1005.07 628.334 1012.68C612.474 1016.33 596.247 1018.42 580.145 1020.95C573.511 1021.99 566.765 1022.31 560.08 1023.05C559.198 1023.15 558.378 1023.82 557.764 1024.61C528.312 1025 498.625 1025 468.469 1025C467.279 1024.34 466.621 1023.19 465.829 1023.09C454.46 1021.64 442.973 1020.9 431.715 1018.88C414.602 1015.8 397.368 1012.82 380.691 1008.03C359.509 1001.96 338.314 995.339 318.075 986.722C295.204 976.984 272.806 965.775 251.285 953.334C231.885 942.12 213.769 928.627 195.447 915.631C187.701 910.137 180.63 903.606 173.688 897.083C161.526 885.657 149.393 874.17 137.807 862.171C120.582 844.331 105.393 824.768 91.1525 804.482C73.6779 779.59 59.0204 753.039 46.3142 725.483C34.6096 700.1 24.8641 673.887 18.1088 646.71C14.2678 631.258 10.8781 615.661 8.12619 599.981C5.78163 586.622 4.65377 573.051 2.9268 559.582C2.83431 558.86 2.17746 558.211 1.39167 557.764C1 528.312 1 498.625 1 468.469C1.66254 467.28 2.81372 466.622 2.91414 465.831C4.35611 454.466 5.08089 442.979 7.12469 431.73C10.26 414.473 13.3501 397.111 18.1585 380.279C24.2094 359.097 31.0701 338.043 39.2664 317.609C46.5224 299.52 55.6344 282.117 64.779 264.862C71.7001 251.803 79.2922 238.983 87.7938 226.907C99.1592 210.763 111.015 194.856 123.909 179.926C137.766 163.884 152.248 148.183 167.963 134.001C184.932 118.688 203.239 104.755 221.694 91.2177C246.203 73.2408 273.035 58.9873 300.577 46.2834C325.948 34.5806 352.154 24.8437 379.324 18.1038C394.773 14.2717 410.362 10.8771 426.036 8.12587C439.389 5.78187 452.955 4.65364 466.419 2.92673C467.14 2.83425 467.789 2.17744 468.236 1.39166C497.688 0.999999 527.375 0.999999 557.531 1C558.721 1.66255 559.379 2.81372 560.171 2.91416C571.54 4.35619 583.027 5.09639 594.285 7.12179C611.399 10.2005 628.632 13.1834 645.309 17.9672C666.491 24.0431 687.686 30.6614 707.925 39.2782C730.796 49.0158 753.194 60.2252 774.715 72.666C794.115 83.8803 812.231 97.3735 830.553 110.369C838.299 115.863 845.37 122.394 852.312 128.917C864.474 140.343 876.607 151.83 888.193 163.83C905.418 181.669 920.607 201.233 934.848 221.518C952.322 246.41 966.98 272.961 979.686 300.517C991.39 325.9 1001.14 352.113 1007.89 379.29C1011.73 394.742 1015.12 410.339 1017.87 426.019C1020.22 439.377 1021.35 452.949 1023.07 466.418C1023.17 467.14 1023.82 467.789 1024.61 468.236C1025 497.688 1025 527.375 1025 557.531ZM746.095 957.686C822.125 917.41 884.568 861.834 931.617 789.815C1005.71 676.394 1030.6 552.405 1005.93 419.31C984.685 304.659 929.167 208.482 840.478 133.015C721.85 32.072 584.248 -5.8602 430.425 18.1004C332.345 33.3781 246.712 76.055 173.729 143.187C38.2356 267.82 -18.8252 452.48 25.3548 630.947C63.2547 784.046 154.915 895.823 296.184 965.541C386.425 1010.08 482.428 1023.6 582.163 1010.15C639.647 1002.4 694.028 984.862 746.095 957.686Z" fill="#FF4258"/>
<path d="M745.11 956.698C693.379 983.71 638.998 1001.25 581.514 1009C481.779 1022.45 385.776 1008.92 295.535 964.39C154.266 894.671 62.6056 782.894 24.7058 629.796C-19.4743 451.328 37.5865 266.668 173.08 142.035C246.062 74.9034 331.696 32.2265 429.776 16.9488C583.599 -7.01178 721.201 30.9204 839.829 131.864C928.518 207.331 984.036 303.508 1005.28 418.158C1029.95 551.253 1005.06 675.243 930.968 788.663C883.919 860.682 821.476 916.259 745.11 956.698Z" fill="#292735"/>
<path d="M546.698 629.635C552.214 615.045 557.593 600.82 562.855 586.551C569.782 567.768 576.618 548.951 583.491 530.147C592.425 505.704 601.315 481.245 610.299 456.82C622.619 423.325 635.042 389.869 647.36 356.374C658.485 326.121 669.519 295.835 680.611 265.57C685.76 251.52 690.981 237.495 696.102 223.434C697.382 219.918 699.317 218.308 703.438 218.342C724.265 218.517 745.096 218.305 765.926 218.276C770.851 218.269 771.628 219.74 769.895 224.386C763.637 241.157 757.48 257.966 751.306 274.768C743.759 295.31 736.196 315.845 728.711 336.409C721.911 355.09 715.258 373.824 708.445 392.5C701.05 412.768 693.497 432.978 686.098 453.245C675.688 481.756 665.401 510.313 654.978 538.82C645.341 565.182 635.541 591.484 625.909 617.848C613.54 651.705 601.271 685.598 588.953 719.474C578.733 747.581 568.472 775.674 558.32 803.806C557.131 807.1 555.335 808.284 551.733 808.257C528.405 808.086 505.074 808.114 481.745 808.228C478.126 808.246 476.227 807.334 474.824 803.58C460.919 766.376 446.78 729.26 432.649 692.14C417.284 651.781 401.81 611.463 386.475 571.092C374.745 540.21 363.227 509.248 351.488 478.37C339.698 447.356 327.679 416.429 315.893 385.413C305.594 358.312 295.549 331.115 285.264 304.01C276.971 282.154 268.479 260.373 260.09 238.554C258.009 233.141 256.017 227.694 253.919 222.287C252.931 219.739 253.726 218.398 256.423 218.304C258.753 218.222 261.088 218.292 263.421 218.298C286.084 218.355 308.747 218.487 331.409 218.404C335.571 218.389 337.878 219.365 339.51 223.736C353.461 261.1 367.703 298.356 381.913 335.623C393.689 366.506 405.589 397.341 417.343 428.231C427.666 455.363 437.813 482.562 448.13 509.696C457.781 535.075 467.583 560.396 477.264 585.763C489.471 617.75 501.635 649.754 513.786 681.762C515.487 686.241 516.948 690.81 518.657 695.285C519.061 696.343 520.021 697.188 521.25 698.836C526.836 683.784 532.085 669.729 537.264 655.647C540.403 647.112 543.431 638.537 546.698 629.635Z" fill="#FF4258"/>
</g>
<defs>
<clipPath id="clip0_2045_95">
<rect width="1024" height="1024" fill="white"/>
</clipPath>
</defs>
</svg>
